<?xml version="1.0" encoding="UTF-8" standalone="no"?>
<!DOCTYPE svg PUBLIC "-//W3C//DTD SVG 1.1//EN" "http://www.w3.org/Graphics/SVG/1.1/DTD/svg11.dtd">
<!-- Created with Vectornator (http://vectornator.io/) -->
<svg height="100%" stroke-miterlimit="10" style="fill-rule:nonzero;clip-rule:evenodd;stroke-linecap:round;stroke-linejoin:round;" version="1.1" viewBox="0 0 19320.5 11331.5" width="100%" xml:space="preserve" xmlns="http://www.w3.org/2000/svg" xmlns:vectornator="http://vectornator.io" xmlns:xlink="http://www.w3.org/1999/xlink">
<defs>
<clipPath id="TextBounds">
<rect height="3320.57" width="1612.25" x="4683.42" y="7433.37"/>
</clipPath>
<clipPath id="TextBounds_2">
<rect height="3320.57" width="1612.25" x="6083.91" y="1264.41"/>
</clipPath>
</defs>
<clipPath id="ArtboardFrame">
<rect height="11331.5" width="19320.5" x="0" y="0"/>
</clipPath>
<g clip-path="url(#ArtboardFrame)" id="Layer_x0020_1" vectornator:layerName="Layer_x0020_1">
<path d="M104.895 5667.16C104.895 2596.77 4382.34 107.73 9658.84 107.73C14935.3 107.73 19212.8 2596.77 19212.8 5667.16C19212.8 8737.56 14935.3 11226.6 9658.84 11226.6C4382.34 11226.6 104.895 8737.56 104.895 5667.16Z" fill="#ffebd6" fill-rule="evenodd" opacity="1" stroke="#000000" stroke-linecap="butt" stroke-linejoin="miter" stroke-width="212.866"/>
<path d="M107.73 5667.16L19212.8 5667.16" fill="none" fill-rule="evenodd" opacity="1" stroke="#000000" stroke-linecap="butt" stroke-linejoin="miter" stroke-width="85.1464"/>
<path d="M9678.69 138.915L9678.69 11226.6" fill="none" fill-rule="evenodd" opacity="1" stroke="#000000" stroke-linecap="butt" stroke-linejoin="miter" stroke-width="85.1464"/>
<path d="M8400.1 138.915L8865.05 1065.96L7938 1065.96L8400.1 138.915ZM8357.58 4805.32L8357.58 1017.76L8445.47 1017.76L8445.47 4805.32L8357.58 4805.32ZM8400.1 5681.34L7938 4754.3L8865.05 4754.3L8400.1 5681.34Z" fill="#000000" fill-rule="evenodd" opacity="1" stroke="none"/>
<path d="M107.73 6942.91L1031.94 6480.81L1031.94 7405.02L107.73 6942.91ZM8779.99 6985.44L983.745 6985.44L983.745 6900.39L8779.99 6900.39L8779.99 6985.44ZM9658.84 6942.91L8731.8 7405.02L8731.8 6480.81L9658.84 6942.91Z" fill="#000000" fill-rule="evenodd" opacity="1" stroke="none"/>
<path clip-path="url(#TextBounds)" d="M5111.49 10044.4L4876.35 10044.4L4876.35 7980.23L5129.79 7980.23L5129.79 8716.63C5236.8 8582.4 5373.38 8515.28 5539.53 8515.28C5631.52 8515.28 5718.59 8533.82 5800.72 8570.9C5882.86 8607.98 5950.44 8660.08 6003.48 8727.19C6056.51 8794.31 6098.05 8875.27 6128.09 8970.08C6158.13 9064.88 6173.15 9166.26 6173.15 9274.21C6173.15 9530.47 6109.78 9728.54 5983.06 9868.4C5856.34 10008.3 5704.27 10078.2 5526.86 10078.2C5350.39 10078.2 5211.93 10004.5 5111.49 9857.14L5111.49 10044.4ZM5108.67 9285.48C5108.67 9464.77 5133.08 9594.3 5181.89 9674.09C5261.68 9804.57 5369.63 9869.81 5505.74 9869.81C5616.5 9869.81 5712.25 9821.7 5792.98 9725.49C5873.7 9629.27 5914.07 9485.89 5914.07 9295.33C5914.07 9100.09 5875.35 8956 5797.91 8863.07C5720.46 8770.14 5626.83 8723.67 5517 8723.67C5406.24 8723.67 5310.49 8771.78 5229.76 8867.99C5149.04 8964.21 5108.67 9103.37 5108.67 9285.48Z" fill="#000000" fill-rule="evenodd" opacity="1" stroke="none"/>
<path clip-path="url(#TextBounds_2)" d="M7254.01 3690.99C7160.14 3770.78 7069.8 3827.1 6982.97 3859.96C6896.14 3892.81 6802.97 3909.24 6703.47 3909.24C6539.2 3909.24 6412.95 3869.11 6324.71 3788.85C6236.48 3708.59 6192.36 3606.04 6192.36 3481.2C6192.36 3407.98 6209.02 3341.1 6242.34 3280.55C6275.67 3220.01 6319.31 3171.43 6373.29 3134.82C6427.26 3098.21 6488.04 3070.52 6555.63 3051.75C6605.38 3038.6 6680.47 3025.93 6780.91 3013.73C6985.55 2989.32 7136.21 2960.22 7232.89 2926.43C7233.83 2891.7 7234.3 2869.64 7234.3 2860.25C7234.3 2757 7210.36 2684.25 7162.49 2642.01C7097.72 2584.75 7001.51 2556.12 6873.84 2556.12C6754.63 2556.12 6666.63 2577.01 6609.84 2618.78C6553.05 2660.55 6511.04 2734.47 6483.82 2840.54L6236.01 2806.75C6258.53 2700.68 6295.61 2615.02 6347.24 2549.78C6398.87 2484.54 6473.49 2434.32 6571.12 2399.12C6668.74 2363.92 6781.85 2346.32 6910.45 2346.32C7038.11 2346.32 7141.84 2361.34 7221.63 2391.38C7301.42 2421.42 7360.08 2459.2 7397.63 2504.73C7435.18 2550.25 7461.46 2607.75 7476.48 2677.21C7484.93 2720.39 7489.15 2798.3 7489.15 2910.94L7489.15 3248.87C7489.15 3484.48 7494.55 3633.5 7505.35 3695.92C7516.14 3758.34 7537.5 3818.19 7569.41 3875.44L7304.7 3875.44C7278.42 3822.88 7261.52 3761.39 7254.01 3690.99ZM7232.89 3124.96C7140.9 3162.51 7002.91 3194.43 6818.93 3220.71C6714.74 3235.73 6641.05 3252.63 6597.87 3271.4C6554.69 3290.17 6521.37 3317.63 6497.9 3353.77C6474.43 3389.91 6462.7 3430.04 6462.7 3474.16C6462.7 3541.74 6488.28 3598.06 6539.44 3643.12C6590.6 3688.18 6665.46 3710.71 6764.02 3710.71C6861.64 3710.71 6948.47 3689.35 7024.5 3646.64C7100.54 3603.93 7156.39 3545.5 7192.06 3471.34C7219.28 3414.08 7232.89 3329.6 7232.89 3217.89L7232.89 3124.96Z" fill="#000000" fill-rule="evenodd" opacity="1" stroke="none"/>
<path d="M19212.8 5667.16L9678.69 5667.16L9678.69 11226.6C14946.1 11218.1 19212.8 8731.8 19212.8 5667.16Z" fill="none" fill-rule="evenodd" opacity="1" stroke="#000000" stroke-linecap="butt" stroke-linejoin="miter" stroke-width="85.1464"/>
</g>
</svg>
