<?xml version="1.0" encoding="UTF-8" standalone="no"?>
<!DOCTYPE svg PUBLIC "-//W3C//DTD SVG 1.1//EN" "http://www.w3.org/Graphics/SVG/1.1/DTD/svg11.dtd">
<!-- Created with Vectornator (http://vectornator.io/) -->
<svg height="100%" stroke-miterlimit="10" style="fill-rule:nonzero;clip-rule:evenodd;stroke-linecap:round;stroke-linejoin:round;" version="1.1" viewBox="0 0 12652.6 7178.22" width="100%" xml:space="preserve" xmlns="http://www.w3.org/2000/svg" xmlns:vectornator="http://vectornator.io" xmlns:xlink="http://www.w3.org/1999/xlink">
<defs>
<clipPath id="TextBounds">
<rect height="1575.66" width="769.51" x="4054.05" y="5919.48"/>
</clipPath>
<clipPath id="TextBounds_2">
<rect height="1575.66" width="769.51" x="2869.02" y="1573.42"/>
</clipPath>
</defs>
<g id="Layer_x0020_1" vectornator:layerName="Layer_x0020_1">
<path d="M3209.22 51.03L12559 51.03L9443.39 4876.2L93.555 4876.2L3209.22 51.03Z" fill="#ffebd6" fill-rule="evenodd" opacity="1" stroke="#000000" stroke-linecap="butt" stroke-linejoin="miter" stroke-width="101.009"/>
<path clip-path="url(#TextBounds)" d="M4259.41 7158.38L4147.83 7158.38L4147.83 6178.89L4268.1 6178.89L4268.1 6528.32C4318.87 6464.63 4383.68 6432.78 4462.52 6432.78C4506.18 6432.78 4547.49 6441.58 4586.46 6459.17C4625.44 6476.77 4657.51 6501.49 4682.67 6533.34C4707.84 6565.18 4727.55 6603.6 4741.8 6648.59C4756.06 6693.58 4763.18 6741.68 4763.18 6792.91C4763.18 6914.51 4733.12 7008.49 4672.99 7074.86C4612.85 7141.23 4540.7 7174.41 4456.51 7174.41C4372.77 7174.41 4307.07 7139.44 4259.41 7069.51L4259.41 7158.38ZM4258.07 6798.25C4258.07 6883.33 4269.66 6944.79 4292.82 6982.66C4330.68 7044.57 4381.9 7075.53 4446.49 7075.53C4499.05 7075.53 4544.48 7052.7 4582.79 7007.04C4621.09 6961.39 4640.25 6893.35 4640.25 6802.93C4640.25 6710.28 4621.87 6641.91 4585.13 6597.81C4548.38 6553.71 4503.95 6531.67 4451.83 6531.67C4399.27 6531.67 4353.84 6554.49 4315.53 6600.15C4277.23 6645.8 4258.07 6711.84 4258.07 6798.25Z" fill="#000000" fill-rule="evenodd" opacity="1" stroke="none"/>
<path clip-path="url(#TextBounds_2)" d="M2963.47 2812.32L2963.47 1832.84L3083.73 1832.84L3083.73 2184.27C3139.86 2119.24 3210.68 2086.73 3296.2 2086.73C3348.76 2086.73 3394.42 2097.08 3433.17 2117.79C3471.92 2138.51 3499.65 2167.13 3516.35 2203.65C3533.06 2240.17 3541.41 2293.18 3541.41 2362.67L3541.41 2812.32L3421.14 2812.32L3421.14 2362.67C3421.14 2302.53 3408.11 2258.77 3382.06 2231.38C3356 2203.98 3319.14 2190.29 3271.48 2190.29C3235.85 2190.29 3202.33 2199.53 3170.93 2218.01C3139.52 2236.5 3117.14 2261.55 3103.78 2293.18C3090.42 2324.8 3083.73 2368.46 3083.73 2424.13L3083.73 2812.32L2963.47 2812.32Z" fill="#000000" fill-rule="evenodd" opacity="1" stroke="none"/>
<path d="M93.555 5480.06L532.98 5261.76L532.98 5701.18L93.555 5480.06ZM9026.64 5502.73L510.3 5502.73L510.3 5460.21L9026.64 5460.21L9026.64 5502.73ZM9443.39 5480.06L9003.96 5701.18L9003.96 5261.76L9443.39 5480.06Z" fill="#000000" fill-rule="evenodd" opacity="1" stroke="none"/>
<path d="M4130.6 51.03L4348.89 490.455L3909.47 490.455L4130.6 51.03ZM4110.75 4459.45L4110.75 467.775L4150.44 467.775L4150.44 4459.45L4110.75 4459.45ZM4130.6 4876.2L3909.47 4433.94L4348.89 4433.94L4130.6 4876.2Z" fill="#000000" fill-rule="evenodd" opacity="1" stroke="none"/>
</g>
</svg>
