<?xml version="1.0" encoding="UTF-8" standalone="no"?>
<!DOCTYPE svg PUBLIC "-//W3C//DTD SVG 1.1//EN" "http://www.w3.org/Graphics/SVG/1.1/DTD/svg11.dtd">
<!-- Created with Vectornator (http://vectornator.io/) -->
<svg height="100%" stroke-miterlimit="10" style="fill-rule:nonzero;clip-rule:evenodd;stroke-linecap:round;stroke-linejoin:round;" version="1.1" viewBox="0 0 4768.47 3248.91" width="100%" xml:space="preserve" xmlns="http://www.w3.org/2000/svg" xmlns:vectornator="http://vectornator.io" xmlns:xlink="http://www.w3.org/1999/xlink">
<defs>
<clipPath id="TextBounds">
<rect height="691.491" width="341.639" x="2568.51" y="-5.67"/>
</clipPath>
<clipPath id="TextBounds_2">
<rect height="691.491" width="341.639" x="-28.35" y="1740.69"/>
</clipPath>
</defs>
<clipPath id="ArtboardFrame">
<rect height="3248.91" width="4768.47" x="0" y="0"/>
</clipPath>
<g clip-path="url(#ArtboardFrame)" id="Layer_x0020_1" vectornator:layerName="Layer_x0020_1">
<path d="M776.79 918.54L4745.79 918.54L4745.79 918.54L4745.79 3229.07L4745.79 3229.07L776.79 3229.07L776.79 3229.07L776.79 918.54L776.79 918.54Z" fill="none" fill-rule="evenodd" opacity="1" stroke="#000000" stroke-linecap="butt" stroke-linejoin="miter" stroke-width="44.2172"/>
<path clip-path="url(#TextBounds)" d="M2660.8 535.815L2611.95 535.815L2611.95 107.041L2664.6 107.041L2664.6 260.007C2686.83 232.124 2715.2 218.183 2749.71 218.183C2768.82 218.183 2786.91 222.034 2803.97 229.736C2821.03 237.438 2835.07 248.259 2846.08 262.201C2857.1 276.142 2865.73 292.96 2871.97 312.654C2878.21 332.347 2881.33 353.406 2881.33 375.829C2881.33 429.06 2868.17 470.202 2841.84 499.255C2815.52 528.308 2783.93 542.834 2747.08 542.834C2710.42 542.834 2681.66 527.528 2660.8 496.915L2660.8 535.815ZM2660.21 378.169C2660.21 415.411 2665.28 442.319 2675.42 458.893C2692 485.996 2714.42 499.548 2742.69 499.548C2765.7 499.548 2785.59 489.555 2802.36 469.569C2819.13 449.582 2827.51 419.798 2827.51 380.216C2827.51 339.659 2819.47 309.729 2803.38 290.425C2787.3 271.122 2767.85 261.47 2745.03 261.47C2722.02 261.47 2702.14 271.463 2685.37 291.449C2668.6 311.435 2660.21 340.342 2660.21 378.169Z" fill="#000000" fill-rule="evenodd" opacity="1" stroke="none"/>
<path clip-path="url(#TextBounds_2)" d="M218.075 2243.86C198.577 2260.43 179.809 2272.13 161.773 2278.96C143.737 2285.78 124.384 2289.19 103.716 2289.19C69.5933 2289.19 43.3677 2280.86 25.039 2264.19C6.71029 2247.52-2.45405 2226.21-2.45405 2200.28C-2.45405 2185.07 1.00695 2171.18 7.92895 2158.6C14.851 2146.03 23.9178 2135.94 35.1295 2128.33C46.3412 2120.73 58.9665 2114.97 73.0055 2111.07C83.3398 2108.34 98.9387 2105.71 119.802 2103.18C162.309 2098.11 193.604 2092.06 213.688 2085.04C213.883 2077.83 213.98 2073.25 213.98 2071.3C213.98 2049.85 209.008 2034.74 199.064 2025.96C185.61 2014.07 165.624 2008.12 139.106 2008.12C114.343 2008.12 96.0626 2012.46 84.266 2021.14C72.4693 2029.81 63.7437 2045.17 58.0891 2067.2L6.61279 2060.18C11.2925 2038.15 18.9944 2020.36 29.7186 2006.81C40.4429 1993.25 55.9442 1982.82 76.2228 1975.51C96.5013 1968.2 119.997 1964.54 146.71 1964.54C173.228 1964.54 194.774 1967.66 211.348 1973.9C227.922 1980.14 240.109 1987.99 247.908 1997.45C255.707 2006.9 261.167 2018.85 264.287 2033.28C266.042 2042.24 266.919 2058.43 266.919 2081.83L266.919 2152.02C266.919 2200.96 268.04 2231.92 270.283 2244.88C272.525 2257.85 276.961 2270.28 283.59 2282.18L228.604 2282.18C223.145 2271.26 219.635 2258.48 218.075 2243.86ZM213.688 2126.28C194.579 2134.08 165.916 2140.71 127.699 2146.17C106.056 2149.29 90.7492 2152.8 81.7799 2156.7C72.8105 2160.6 65.8885 2166.3 61.0139 2173.81C56.1392 2181.32 53.7019 2189.65 53.7019 2198.82C53.7019 2212.86 59.0153 2224.56 69.642 2233.92C80.2688 2243.28 95.8189 2247.95 116.292 2247.95C136.571 2247.95 154.607 2243.52 170.401 2234.65C186.195 2225.78 197.797 2213.64 205.206 2198.23C210.861 2186.34 213.688 2168.79 213.688 2145.59L213.688 2126.28Z" fill="#000000" fill-rule="evenodd" opacity="1" stroke="none"/>
<path d="M496.125 935.55L592.515 1125.49L402.57 1125.49L496.125 935.55ZM487.62 3061.8L487.62 1116.99L507.465 1116.99L507.465 3061.8L487.62 3061.8ZM496.125 3243.24L402.57 3050.46L592.515 3050.46L496.125 3243.24Z" fill="#000000" fill-rule="evenodd" opacity="1" stroke="none"/>
<path d="M776.79 652.05L969.57 555.66L969.57 748.44L776.79 652.05ZM4564.35 660.555L961.065 660.555L961.065 643.545L4564.35 643.545L4564.35 660.555ZM4745.79 652.05L4555.85 748.44L4555.85 555.66L4745.79 652.05Z" fill="#000000" fill-rule="evenodd" opacity="1" stroke="none"/>
<path d="M776.79 918.54L776.79 3226.23L4745.79 3226.23L4745.79 918.54L776.79 918.54Z" fill="#ffebd6" fill-rule="evenodd" opacity="1" stroke="#000000" stroke-linecap="butt" stroke-linejoin="miter" stroke-width="17.6869"/>
</g>
</svg>
