<?xml version="1.0" encoding="UTF-8" standalone="no"?>
<!DOCTYPE svg PUBLIC "-//W3C//DTD SVG 1.1//EN" "http://www.w3.org/Graphics/SVG/1.1/DTD/svg11.dtd">
<!-- Created with Vectornator (http://vectornator.io/) -->
<svg height="100%" stroke-miterlimit="10" style="fill-rule:nonzero;clip-rule:evenodd;stroke-linecap:round;stroke-linejoin:round;" version="1.1" viewBox="0 0 7257.6 4689.09" width="100%" xml:space="preserve" xmlns="http://www.w3.org/2000/svg" xmlns:vectornator="http://vectornator.io" xmlns:xlink="http://www.w3.org/1999/xlink">
<defs>
<clipPath id="TextBounds">
<rect height="788.13" width="1628.41" x="2852.02" y="2670.45"/>
</clipPath>
<clipPath id="TextBounds_2">
<rect height="1202.18" width="366.272" x="5190.89" y="3745.03"/>
</clipPath>
</defs>
<clipPath id="ArtboardFrame">
<rect height="4689.09" width="7257.6" x="0" y="0"/>
</clipPath>
<g clip-path="url(#ArtboardFrame)" id="Layer_x0020_1" vectornator:layerName="Layer_x0020_1">
<path d="M3628.8 3628.8L39.69 3628.8C39.69 1647.13 1647.13 39.69 3628.8 39.69C5613.3 39.69 7220.74 1647.13 7220.74 3628.8L3628.8 3628.8Z" fill="#ffebd6" fill-rule="evenodd" opacity="1" stroke="#000000" stroke-linecap="butt" stroke-linejoin="miter" stroke-width="77.0851"/>
<path d="M3671.32 3614.62L2208.47 3614.62C2208.47 2806.65 2863.35 2151.76 3671.32 2151.76C4479.3 2151.76 5134.18 2806.65 5134.18 3614.62L3671.32 3614.62Z" fill="#ff8041" fill-rule="evenodd" opacity="1" stroke="#000000" stroke-linecap="butt" stroke-linejoin="miter" stroke-width="30.834"/>
<g fill="#000000" opacity="1" stroke="none">
<path clip-path="url(#TextBounds)" d="M2931.22 2886.54L2931.22 2833.77C2980.94 2828.92 3015.61 2820.83 3035.24 2809.48C3054.87 2798.14 3069.53 2771.31 3079.22 2728.99L3133.52 2728.99L3133.52 3274.31L3060.1 3274.31L3060.1 2886.54L2931.22 2886.54Z" fill-rule="evenodd"/>
<path clip-path="url(#TextBounds)" d="M3504.84 2956.14C3535.18 2956.14 3558.89 2947.66 3575.97 2930.71C3593.05 2913.75 3601.6 2893.55 3601.6 2870.1C3601.6 2849.7 3593.44 2830.96 3577.12 2813.88C3560.8 2796.8 3535.95 2788.26 3502.55 2788.26C3469.41 2788.26 3445.44 2796.8 3430.66 2813.88C3415.87 2830.96 3408.48 2850.98 3408.48 2873.92C3408.48 2899.67 3418.04 2919.81 3437.16 2934.34C3456.28 2948.87 3478.84 2956.14 3504.84 2956.14ZM3509.05 3227.27C3540.92 3227.27 3567.37 3218.67 3588.4 3201.46C3609.43 3184.25 3619.95 3158.56 3619.95 3124.4C3619.95 3088.96 3609.12 3062.07 3587.45 3043.71C3565.78 3025.36 3537.99 3016.18 3504.08 3016.18C3471.19 3016.18 3444.36 3025.55 3423.58 3044.29C3402.8 3063.02 3392.41 3088.96 3392.41 3122.11C3392.41 3150.66 3401.91 3175.33 3420.9 3196.1C3439.9 3216.88 3469.28 3227.27 3509.05 3227.27ZM3411.15 2982.53C3392.03 2974.37 3377.12 2964.81 3366.41 2953.84C3346.27 2933.45 3336.2 2906.94 3336.2 2874.3C3336.2 2833.51 3350.99 2798.46 3380.56 2769.14C3410.13 2739.82 3452.07 2725.16 3506.37 2725.16C3558.89 2725.16 3600.07 2738.99 3629.89 2766.65C3659.72 2794.31 3674.64 2826.63 3674.64 2863.59C3674.64 2897.76 3665.97 2925.42 3648.63 2946.58C3638.94 2958.56 3623.9 2970.29 3603.51 2981.76C3626.2 2992.21 3644.04 3004.2 3657.05 3017.71C3681.26 3043.2 3693.37 3076.34 3693.37 3117.14C3693.37 3165.32 3677.19 3206.17 3644.81 3239.7C3612.43 3273.22 3566.67 3289.99 3507.52 3289.99C3454.24 3289.99 3409.18 3275.52 3372.34 3246.58C3335.5 3217.65 3317.08 3175.64 3317.08 3120.58C3317.08 3088.2 3324.98 3060.22 3340.79 3036.64C3356.6 3013.05 3380.05 2995.02 3411.15 2982.53Z" fill-rule="evenodd"/>
<path clip-path="url(#TextBounds)" d="M3939.27 2726.69C4010.14 2726.69 4061.38 2755.88 4093 2814.26C4117.47 2859.39 4129.71 2921.21 4129.71 2999.73C4129.71 3074.18 4118.62 3135.75 4096.44 3184.44C4064.32 3254.29 4011.8 3289.22 3938.88 3289.22C3873.11 3289.22 3824.16 3260.67 3792.04 3203.56C3765.27 3155.89 3751.88 3091.9 3751.88 3011.59C3751.88 2949.38 3759.91 2895.97 3775.98 2851.36C3806.06 2768.25 3860.49 2726.69 3939.27 2726.69ZM3938.5 3226.51C3974.19 3226.51 4002.62 3210.7 4023.78 3179.09C4044.94 3147.47 4055.52 3088.58 4055.52 3002.41C4055.52 2940.21 4047.87 2889.03 4032.58 2848.87C4017.28 2808.72 3987.58 2788.64 3943.47 2788.64C3902.94 2788.64 3873.3 2807.7 3854.56 2845.81C3835.82 2883.93 3826.45 2940.08 3826.45 3014.27C3826.45 3070.1 3832.45 3114.97 3844.43 3148.88C3862.78 3200.63 3894.14 3226.51 3938.5 3226.51Z" fill-rule="evenodd"/>
<path clip-path="url(#TextBounds)" d="M4321.3 2727.07C4353.68 2727.07 4380.95 2738.23 4403.13 2760.53C4425.31 2782.84 4436.4 2810.06 4436.4 2842.18C4436.4 2875.32 4424.87 2902.92 4401.8 2924.97C4378.72 2947.02 4351.89 2958.05 4321.3 2958.05C4287.39 2958.05 4259.6 2946.58 4237.93 2923.63C4216.26 2900.69 4205.43 2873.92 4205.43 2843.33C4205.43 2810.69 4216.84 2783.16 4239.65 2760.73C4262.47 2738.29 4289.69 2727.07 4321.3 2727.07ZM4247.11 2842.94C4247.11 2862.83 4254.38 2880.04 4268.91 2894.57C4283.44 2909.1 4300.9 2916.37 4321.3 2916.37C4340.93 2916.37 4358.07 2909.17 4372.73 2894.76C4387.39 2880.36 4394.72 2862.83 4394.72 2842.18C4394.72 2822.29 4387.52 2805.09 4373.12 2790.55C4358.71 2776.02 4341.44 2768.76 4321.3 2768.76C4301.16 2768.76 4283.76 2775.96 4269.1 2790.36C4254.44 2804.77 4247.11 2822.29 4247.11 2842.94Z" fill-rule="evenodd"/>
</g>
<path clip-path="url(#TextBounds_2)" d="M5262.95 4689.09L5262.95 4147.59L5345.55 4147.59L5345.55 4229.68C5366.63 4191.27 5386.09 4165.95 5403.94 4153.71C5421.78 4141.47 5441.41 4135.35 5462.83 4135.35C5493.76 4135.35 5525.2 4145.21 5557.16 4164.93L5525.54 4250.08C5503.11 4236.82 5480.67 4230.19 5458.24 4230.19C5438.18 4230.19 5420.17 4236.23 5404.19 4248.29C5388.21 4260.36 5376.83 4277.1 5370.03 4298.52C5359.83 4331.15 5354.73 4366.84 5354.73 4405.59L5354.73 4689.09L5262.95 4689.09Z" fill="#000000" fill-rule="evenodd" opacity="1" stroke="none"/>
<path d="M3557.93 3628.8C3557.93 3589.66 3589.66 3557.93 3628.8 3557.93C3667.94 3557.93 3699.67 3589.66 3699.67 3628.8C3699.67 3667.94 3667.94 3699.67 3628.8 3699.67C3589.66 3699.67 3557.93 3667.94 3557.93 3628.8Z" fill="#000000" fill-rule="evenodd" opacity="1" stroke="#000000" stroke-linecap="butt" stroke-linejoin="miter" stroke-width="30.834"/>
</g>
</svg>
