<?xml version="1.0" encoding="UTF-8" standalone="no"?>
<!DOCTYPE svg PUBLIC "-//W3C//DTD SVG 1.1//EN" "http://www.w3.org/Graphics/SVG/1.1/DTD/svg11.dtd">
<!-- Created with Vectornator (http://vectornator.io/) -->
<svg height="100%" stroke-miterlimit="10" style="fill-rule:nonzero;clip-rule:evenodd;stroke-linecap:round;stroke-linejoin:round;" version="1.1" viewBox="0 0 7770.73 7518.42" width="100%" xml:space="preserve" xmlns="http://www.w3.org/2000/svg" xmlns:vectornator="http://vectornator.io" xmlns:xlink="http://www.w3.org/1999/xlink">
<defs>
<clipPath id="TextBounds">
<rect height="1228.36" width="600.509" x="3498.39" y="6540.35"/>
</clipPath>
<clipPath id="TextBounds_2">
<rect height="1228.36" width="600.509" x="2199.96" y="-257.985"/>
</clipPath>
<clipPath id="TextBounds_3">
<rect height="1228.36" width="600.509" x="3101.49" y="3092.99"/>
</clipPath>
</defs>
<clipPath id="ArtboardFrame">
<rect height="7518.42" width="7770.73" x="0" y="0"/>
</clipPath>
<g clip-path="url(#ArtboardFrame)" id="Layer_x0020_1" vectornator:layerName="Layer_x0020_1">
<path d="M48.195 5806.08L7691.35 5806.08L4147.6 1355.13L1043.28 1355.13L48.195 5806.08Z" fill="#ffebd6" fill-rule="evenodd" opacity="1" stroke="#000000" stroke-linecap="butt" stroke-linejoin="miter" stroke-width="78.5771"/>
<path d="M48.195 6276.69L391.23 6106.59L391.23 6446.79L48.195 6276.69ZM7365.33 6293.7L374.22 6293.7L374.22 6262.52L7365.33 6262.52L7365.33 6293.7ZM7691.35 6276.69L7348.32 6446.79L7348.32 6106.59L7691.35 6276.69Z" fill="#000000" fill-rule="evenodd" opacity="1" stroke="none"/>
<path d="M1043.28 884.52L1386.32 711.585L1386.32 1054.62L1043.28 884.52ZM3824.41 898.695L1369.31 898.695L1369.31 867.51L3824.41 867.51L3824.41 898.695ZM4147.6 884.52L3804.57 1054.62L3804.57 711.585L4147.6 884.52Z" fill="#000000" fill-rule="evenodd" opacity="1" stroke="none"/>
<path clip-path="url(#TextBounds)" d="M3659.09 7504.24L3572.29 7504.24L3572.29 6742.28L3665.85 6742.28L3665.85 7014.11C3705.35 6964.56 3755.76 6939.79 3817.1 6939.79C3851.05 6939.79 3883.19 6946.63 3913.51 6960.32C3943.83 6974.01 3968.78 6993.24 3988.36 7018.01C4007.93 7042.79 4023.27 7072.67 4034.35 7107.67C4045.44 7142.67 4050.99 7180.09 4050.99 7219.94C4050.99 7314.53 4027.6 7387.65 3980.82 7439.28C3934.04 7490.9 3877.91 7516.72 3812.42 7516.72C3747.27 7516.72 3696.17 7489.52 3659.09 7435.12L3659.09 7504.24ZM3658.05 7224.1C3658.05 7290.28 3667.06 7338.1 3685.08 7367.55C3714.53 7415.71 3754.38 7439.8 3804.62 7439.8C3845.51 7439.8 3880.85 7422.04 3910.65 7386.52C3940.45 7351 3955.35 7298.07 3955.35 7227.73C3955.35 7155.66 3941.06 7102.47 3912.47 7068.17C3883.88 7033.86 3849.32 7016.71 3808.78 7016.71C3767.89 7016.71 3732.55 7034.47 3702.75 7069.99C3672.95 7105.5 3658.05 7156.87 3658.05 7224.1Z" fill="#000000" fill-rule="evenodd" opacity="1" stroke="none"/>
<path clip-path="url(#TextBounds_2)" d="M2634.57 637.827C2599.92 667.28 2566.57 688.07 2534.52 700.198C2502.47 712.325 2468.08 718.389 2431.35 718.389C2370.71 718.389 2324.1 703.576 2291.53 673.95C2258.96 644.324 2242.67 606.468 2242.67 560.383C2242.67 533.356 2248.83 508.667 2261.13 486.317C2273.43 463.968 2289.54 446.036 2309.46 432.523C2329.39 419.009 2351.82 408.787 2376.77 401.857C2395.14 397.006 2422.86 392.328 2459.93 387.823C2535.47 378.814 2591.09 368.073 2626.78 355.599C2627.12 342.778 2627.3 334.635 2627.3 331.17C2627.3 293.054 2618.46 266.2 2600.79 250.608C2576.88 229.471 2541.36 218.902 2494.24 218.902C2450.23 218.902 2417.75 226.612 2396.78 242.032C2375.82 257.451 2360.31 284.738 2350.26 323.893L2258.79 311.419C2267.1 272.264 2280.79 240.645 2299.85 216.563C2318.91 192.481 2346.45 173.943 2382.49 160.949C2418.53 147.955 2460.28 141.458 2507.75 141.458C2554.88 141.458 2593.16 147.003 2622.62 158.091C2652.07 169.179 2673.73 183.126 2687.59 199.931C2701.45 216.737 2711.15 237.96 2716.69 263.601C2719.81 279.541 2721.37 308.301 2721.37 349.881L2721.37 474.623C2721.37 561.596 2723.36 616.603 2727.35 639.646C2731.33 662.689 2739.22 684.778 2751 705.915L2653.28 705.915C2643.58 686.511 2637.34 663.815 2634.57 637.827ZM2626.78 428.884C2592.82 442.745 2541.88 454.526 2473.97 464.228C2435.5 469.772 2408.3 476.009 2392.36 482.939C2376.43 489.869 2364.12 500.004 2355.46 513.345C2346.8 526.685 2342.47 541.498 2342.47 557.784C2342.47 582.732 2351.91 603.523 2370.79 620.155C2389.68 636.787 2417.31 645.103 2453.7 645.103C2489.73 645.103 2521.78 637.22 2549.85 621.454C2577.92 605.688 2598.54 584.119 2611.7 556.745C2621.75 535.608 2626.78 504.422 2626.78 463.188L2626.78 428.884Z" fill="#000000" fill-rule="evenodd" opacity="1" stroke="none"/>
<g opacity="1">
<path d="M3991.68 1340.95L4161.78 1683.99L3818.74 1683.99L3991.68 1340.95ZM3974.67 5465.88L3974.67 1664.14L4005.86 1664.14L4005.86 5465.88L3974.67 5465.88ZM3991.68 5791.9L3818.74 5448.87L4161.78 5448.87L3991.68 5791.9Z" fill="#000000" fill-rule="evenodd" opacity="1" stroke="none"/>
<path clip-path="url(#TextBounds_3)" d="M3175.91 4056.89L3175.91 3294.92L3269.47 3294.92L3269.47 3568.31C3313.13 3517.72 3368.22 3492.43 3434.75 3492.43C3475.64 3492.43 3511.15 3500.48 3541.3 3516.6C3571.45 3532.71 3593.02 3554.97 3606.01 3583.39C3619 3611.8 3625.5 3653.03 3625.5 3707.09L3625.5 4056.89L3531.94 4056.89L3531.94 3707.09C3531.94 3660.31 3521.81 3626.27 3501.54 3604.96C3481.27 3583.65 3452.59 3572.99 3415.52 3572.99C3387.8 3572.99 3361.72 3580.18 3337.29 3594.56C3312.87 3608.94 3295.45 3628.43 3285.06 3653.03C3274.66 3677.64 3269.47 3711.59 3269.47 3754.91L3269.47 4056.89L3175.91 4056.89Z" fill="#000000" fill-rule="evenodd" opacity="1" stroke="none"/>
</g>
</g>
</svg>
